Coordinates
version=1
nRows=11
nColumns=46
inDegrees=yes

Units are S.I. units (second, meters, Newtons, ...)
Angles are in degrees.

endheader
time	pelvis_tilt	pelvis_list	pelvis_rotation	pelvis_tx	pelvis_ty	pelvis_tz	bb_angle	bb_tx	bb_ty	bb_tz	hip_flexion_r	hip_adduction_r	hip_rotation_r	knee_angle_r	knee_angle_r_beta	ankle_angle_r	subtalar_angle_r	mtp_angle_r	crank_angle_r	hip_flexion_l	hip_adduction_l	hip_rotation_l	knee_angle_l	knee_angle_l_beta	ankle_angle_l	subtalar_angle_l	mtp_angle_l	crank_angle_l	lumbar_extension	lumbar_bending	lumbar_rotation	arm_flex_r	arm_add_r	arm_rot_r	elbow_flex_r	pro_sup_r	wrist_flex_r	wrist_dev_r	arm_flex_l	arm_add_l	arm_rot_l	elbow_flex_l	pro_sup_l	wrist_flex_l	wrist_dev_l
      0.00500000	    -14.54735706	      0.76638060	      5.30505714	      0.18611947	      1.04051044	     -0.24117904	      0.00000000	      0.50000000	      0.00000000	      0.25000000	     44.94939601	     -9.09011382	     -1.79618732	     76.78143808	      1.34008890	     15.94392965	     -2.19580582	      0.00000000	      0.00000000	     81.78883800	     -5.73746289	     -3.43367180	     83.12102791	      1.45073561	     -8.40170206	     -4.98023750	      0.00000000	      0.00000000	    -56.63605521	      1.04895419	     -4.63515691	     85.28544549	    -18.42079964	     35.54050742	     50.70465860	     48.45537181	      0.00000000	      0.00000000	     80.36875692	    -18.92527965	     26.00768415	     61.66345225	     45.66992267	      0.00000000	      0.00000000
      0.01000000	    -14.55591212	      0.85187875	      5.32504857	      0.18610777	      1.04050864	     -0.24121636	      0.00000000	      0.50000000	      0.00000000	      0.25000000	     44.97516847	     -9.19706022	     -1.75666146	     76.81857039	      1.34073698	     15.99994340	     -2.06603263	      0.00000000	      0.00000000	     81.76696832	     -5.69087497	     -3.53205928	     83.09395631	      1.45026313	     -8.48890462	     -5.12465974	      0.00000000	      0.00000000	    -56.63017796	      0.96520647	     -4.64800567	     85.00409541	    -18.34963969	     34.81323674	     51.01710032	     47.90898537	      0.00000000	      0.00000000	     80.59163229	    -18.82110409	     26.34625918	     61.31020908	     45.44094260	      0.00000000	      0.00000000
      0.01500000	    -14.55392727	      0.79588731	      5.29784497	      0.18611135	      1.04048619	     -0.24113964	      0.00000000	      0.50000000	      0.00000000	      0.25000000	     44.97185674	     -9.10686517	     -1.75995462	     76.79851317	      1.34038692	     15.94917170	     -2.18439243	      0.00000000	      0.00000000	     81.78781423	     -5.74502935	     -3.47324139	     83.12243968	      1.45076025	     -8.41520005	     -5.02520076	      0.00000000	      0.00000000	    -56.61984707	      1.02428408	     -4.60463733	     85.14273232	    -18.26593518	     35.11855122	     50.80380197	     47.62007526	      0.00000000	      0.00000000	     80.50376773	    -18.88927384	     26.23848153	     61.42025752	     45.38760127	      0.00000000	      0.00000000
      0.02000000	    -14.61379985	      0.84592035	      5.29745080	      0.18601878	      1.04040748	     -0.24109148	      0.00000000	      0.50000000	      0.00000000	      0.25000000	     45.06686715	     -9.19279386	     -1.74680755	     76.84536756	      1.34120468	     15.93854315	     -1.97247451	      0.00000000	      0.00000000	     81.84264115	     -5.72859117	     -3.52497148	     83.10615660	      1.45047606	     -8.43176125	     -5.03628941	      0.00000000	      0.00000000	    -56.52809962	      1.02930234	     -4.73107160	     85.22856227	    -18.15730209	     35.41195528	     50.72029791	     47.37514834	      0.00000000	      0.00000000	     80.43516313	    -19.06052212	     26.33494547	     61.42547811	     45.32175296	      0.00000000	      0.00000000
      0.02500000	    -14.64351083	      0.83328682	      5.29340937	      0.18589315	      1.04055460	     -0.24115907	      0.00000000	      0.50000000	      0.00000000	      0.25000000	     45.09545701	     -9.19532463	     -1.75699947	     76.82902027	      1.34091936	     15.99504326	     -2.04006223	      0.00000000	      0.00000000	     81.87551067	     -5.71471739	     -3.47784531	     83.11166563	      1.45057221	     -8.41543847	     -5.08430605	      0.00000000	      0.00000000	    -56.50039043	      1.01723277	     -4.73626721	     85.16035721	    -18.18883673	     35.28962728	     50.87319437	     47.04242564	      0.00000000	      0.00000000	     80.41544084	    -19.08880644	     26.30040737	     61.57089072	     45.23477408	      0.00000000	      0.00000000
      0.03000000	    -14.65427412	      0.79771020	      5.29185944	      0.18587572	      1.04054674	     -0.24117175	      0.00000000	      0.50000000	      0.00000000	      0.25000000	     45.10893801	     -9.16494746	     -1.78231043	     76.82989661	      1.34093466	     15.94931437	     -2.07710464	      0.00000000	      0.00000000	     81.90512743	     -5.71779036	     -3.43407170	     83.12316442	      1.45077290	     -8.39786766	     -5.05636016	      0.00000000	      0.00000000	    -56.47069712	      1.05823948	     -4.73261982	     85.19408797	    -18.06263332	     35.27675113	     50.69544307	     46.97374720	      0.00000000	      0.00000000	     80.33686650	    -19.16853130	     26.27155284	     61.70449437	     45.16033758	      0.00000000	      0.00000000
      0.03500000	    -14.64082062	      0.80062496	      5.29040413	      0.18588228	      1.04062088	     -0.24118900	      0.00000000	      0.50000000	      0.00000000	      0.25000000	     45.08246449	     -9.15869427	     -1.77544476	     76.80601594	      1.34051786	     15.95006328	     -2.11229307	      0.00000000	      0.00000000	     81.88011348	     -5.72262011	     -3.43929540	     83.11803610	      1.45068340	     -8.36024235	     -5.00955116	      0.00000000	      0.00000000	    -56.52060567	      1.05621089	     -4.69713266	     85.25043272	    -18.25926246	     35.55100173	     50.89671663	     46.72421157	      0.00000000	      0.00000000	     80.34811383	    -19.10781212	     26.22972522	     61.78170964	     44.99749515	      0.00000000	      0.00000000
      0.04000000	    -14.66072009	      0.82976870	      5.30727084	      0.18586236	      1.04060175	     -0.24123223	      0.00000000	      0.50000000	      0.00000000	      0.25000000	     45.10696391	     -9.20327085	     -1.76473113	     76.82089826	      1.34077761	     15.98085639	     -2.04839489	      0.00000000	      0.00000000	     81.89167473	     -5.68564428	     -3.46682532	     83.10099878	      1.45038604	     -8.42510309	     -5.12315607	      0.00000000	      0.00000000	    -56.49440886	      1.03600231	     -4.70541558	     85.09102255	    -18.16935380	     35.10146652	     51.02793069	     46.41638263	      0.00000000	      0.00000000	     80.45489440	    -19.08467872	     26.44723555	     61.57577765	     44.86433623	      0.00000000	      0.00000000
      0.04500000	    -14.66286493	      0.80393033	      5.30308810	      0.18586391	      1.04057625	     -0.24123517	      0.00000000	      0.50000000	      0.00000000	      0.25000000	     45.10934105	     -9.17475919	     -1.77448543	     76.82307596	      1.34081562	     15.96299518	     -2.07305942	      0.00000000	      0.00000000	     81.90882334	     -5.69933114	     -3.43760652	     83.11574211	      1.45064336	     -8.41510517	     -5.09094876	      0.00000000	      0.00000000	    -56.48973243	      1.04048149	     -4.65586425	     85.13150091	    -18.31402765	     35.40699851	     51.12105435	     46.26688108	      0.00000000	      0.00000000	     80.44611509	    -19.01800606	     26.38121732	     61.59528549	     44.82157942	      0.00000000	      0.00000000
      0.05000000	    -14.69761625	      0.84140194	      5.35484308	      0.18582756	      1.04066567	     -0.24132077	      0.00000000	      0.50000000	      0.00000000	      0.25000000	     45.12797444	     -9.24451608	     -1.78202659	     76.78465836	      1.34014510	     16.00649290	     -2.00506500	      0.00000000	      0.00000000	     81.90397024	     -5.61531907	     -3.46452574	     83.02968155	      1.44914132	     -8.42263021	     -5.16761648	      0.00000000	      0.00000000	    -56.49802808	      1.06492963	     -4.69257610	     85.06586923	    -18.36995064	     35.22320076	     51.31837658	     46.16588111	      0.00000000	      0.00000000	     80.41996459	    -18.98804103	     26.28985421	     61.65884943	     44.80873481	      0.00000000	      0.00000000
      0.05500000	    -14.70910782	      0.89067787	      5.33491139	      0.18587055	      1.04061311	     -0.24132370	      0.00000000	      0.50000000	      0.00000000	      0.25000000	     45.15503183	     -9.28764964	     -1.73066709	     76.83042794	      1.34094393	     16.05786854	     -1.89986494	      0.00000000	      0.00000000	     81.90711553	     -5.62212624	     -3.52904362	     83.05135965	      1.44951967	     -8.51467549	     -5.25987450	      0.00000000	      0.00000000	    -56.42756745	      1.00218009	     -4.71599863	     84.89828674	    -18.01023349	     34.54341014	     51.14096103	     45.53630924	      0.00000000	      0.00000000	     80.53395391	    -18.81133513	     26.28778377	     61.20021221	     44.63354168	      0.00000000	      0.00000000
